<mxfile host="app.diagrams.net" modified="2024-07-12T01:24:50.842Z" agent="Mozilla/5.0 (Windows NT 10.0; Win64; x64) AppleWebKit/537.36 (KHTML, like Gecko) Chrome/126.0.0.0 Safari/537.36" etag="q9VUbECnwQOOX7cCiMIf" version="24.6.5" type="github" pages="2">
  <diagram name="ページ1" id="PjovX_DnfIpz0J4LrwaW">
    <mxGraphModel dx="2244" dy="1164" grid="0" gridSize="10" guides="1" tooltips="1" connect="1" arrows="1" fold="1" page="0" pageScale="1" pageWidth="827" pageHeight="1169" math="0" shadow="0">
      <root>
        <mxCell id="0" />
        <mxCell id="1" parent="0" />
        <mxCell id="ziOiXydjQFaTyok0d3w3-21" value="&lt;div style=&quot;font-size: 17px;&quot;&gt;ファイアフォール&lt;/div&gt;" style="text;strokeColor=none;align=center;fillColor=none;html=1;verticalAlign=middle;whiteSpace=wrap;rounded=0;fontSize=17;" vertex="1" parent="1">
          <mxGeometry x="121" y="325.07" width="85" height="104.93" as="geometry" />
        </mxCell>
        <mxCell id="ziOiXydjQFaTyok0d3w3-6" value="" style="whiteSpace=wrap;html=1;aspect=fixed;align=left;" vertex="1" parent="1">
          <mxGeometry x="-536" y="-278" width="1357" height="1357" as="geometry" />
        </mxCell>
        <mxCell id="ziOiXydjQFaTyok0d3w3-2" value="" style="whiteSpace=wrap;html=1;aspect=fixed;" vertex="1" parent="1">
          <mxGeometry x="237" y="425" width="539" height="539" as="geometry" />
        </mxCell>
        <mxCell id="DrKxHcsU2RTHfQZ3V-Yh-89" value="" style="rounded=0;whiteSpace=wrap;html=1;" parent="1" vertex="1">
          <mxGeometry x="-511" y="-75" width="582" height="464.07" as="geometry" />
        </mxCell>
        <mxCell id="DrKxHcsU2RTHfQZ3V-Yh-28" value="" style="whiteSpace=wrap;html=1;" parent="1" vertex="1">
          <mxGeometry x="233" y="-81" width="538" height="463" as="geometry" />
        </mxCell>
        <mxCell id="DrKxHcsU2RTHfQZ3V-Yh-1" value="" style="image;aspect=fixed;perimeter=ellipsePerimeter;html=1;align=center;shadow=0;dashed=0;spacingTop=3;image=img/lib/active_directory/internet_cloud.svg;" parent="1" vertex="1">
          <mxGeometry x="107.59" y="-195" width="98.41" height="62" as="geometry" />
        </mxCell>
        <mxCell id="DrKxHcsU2RTHfQZ3V-Yh-2" value="" style="sketch=0;outlineConnect=0;fontColor=#232F3E;gradientColor=none;fillColor=#8C4FFF;strokeColor=none;dashed=0;verticalLabelPosition=bottom;verticalAlign=top;align=center;html=1;fontSize=12;fontStyle=0;aspect=fixed;pointerEvents=1;shape=mxgraph.aws4.customer_gateway;" parent="1" vertex="1">
          <mxGeometry x="126.5" y="-39.93" width="66" height="66" as="geometry" />
        </mxCell>
        <mxCell id="DrKxHcsU2RTHfQZ3V-Yh-3" value="" style="image;html=1;image=img/lib/clip_art/networking/Firewall-page1_128x128.png" parent="1" vertex="1">
          <mxGeometry x="121" y="227" width="85" height="71" as="geometry" />
        </mxCell>
        <mxCell id="DrKxHcsU2RTHfQZ3V-Yh-4" value="" style="image;html=1;image=img/lib/clip_art/computers/Server_Rack_128x128.png" parent="1" vertex="1">
          <mxGeometry x="276" y="41" width="80" height="80" as="geometry" />
        </mxCell>
        <mxCell id="DrKxHcsU2RTHfQZ3V-Yh-5" value="" style="image;html=1;image=img/lib/clip_art/computers/Server_Rack_128x128.png" parent="1" vertex="1">
          <mxGeometry x="390" y="41" width="80" height="80" as="geometry" />
        </mxCell>
        <mxCell id="DrKxHcsU2RTHfQZ3V-Yh-6" value="" style="image;html=1;image=img/lib/clip_art/computers/Server_Rack_128x128.png" parent="1" vertex="1">
          <mxGeometry x="494" y="38" width="80" height="80" as="geometry" />
        </mxCell>
        <mxCell id="DrKxHcsU2RTHfQZ3V-Yh-7" value="" style="image;html=1;image=img/lib/clip_art/computers/Server_Rack_128x128.png" parent="1" vertex="1">
          <mxGeometry x="612" y="45" width="80" height="80" as="geometry" />
        </mxCell>
        <mxCell id="DrKxHcsU2RTHfQZ3V-Yh-11" value="" style="endArrow=none;html=1;rounded=0;fontSize=12;startSize=8;endSize=8;curved=1;exitX=0.325;exitY=0.415;exitDx=0;exitDy=0;exitPerimeter=0;" parent="1" source="DrKxHcsU2RTHfQZ3V-Yh-8" target="DrKxHcsU2RTHfQZ3V-Yh-4" edge="1">
          <mxGeometry width="50" height="50" relative="1" as="geometry">
            <mxPoint x="351" y="154" as="sourcePoint" />
            <mxPoint x="401" y="104" as="targetPoint" />
          </mxGeometry>
        </mxCell>
        <mxCell id="DrKxHcsU2RTHfQZ3V-Yh-13" value="" style="endArrow=none;html=1;rounded=0;fontSize=12;startSize=8;endSize=8;curved=1;exitX=0.544;exitY=0.305;exitDx=0;exitDy=0;exitPerimeter=0;" parent="1" source="DrKxHcsU2RTHfQZ3V-Yh-8" target="DrKxHcsU2RTHfQZ3V-Yh-6" edge="1">
          <mxGeometry width="50" height="50" relative="1" as="geometry">
            <mxPoint x="351" y="154" as="sourcePoint" />
            <mxPoint x="401" y="104" as="targetPoint" />
          </mxGeometry>
        </mxCell>
        <mxCell id="DrKxHcsU2RTHfQZ3V-Yh-14" value="" style="endArrow=none;html=1;rounded=0;fontSize=12;startSize=8;endSize=8;curved=1;exitX=0.717;exitY=0.462;exitDx=0;exitDy=0;exitPerimeter=0;" parent="1" source="DrKxHcsU2RTHfQZ3V-Yh-8" target="DrKxHcsU2RTHfQZ3V-Yh-7" edge="1">
          <mxGeometry width="50" height="50" relative="1" as="geometry">
            <mxPoint x="351" y="154" as="sourcePoint" />
            <mxPoint x="401" y="104" as="targetPoint" />
          </mxGeometry>
        </mxCell>
        <mxCell id="DrKxHcsU2RTHfQZ3V-Yh-15" value="" style="endArrow=none;html=1;rounded=0;fontSize=12;startSize=8;endSize=8;curved=1;" parent="1" source="DrKxHcsU2RTHfQZ3V-Yh-8" target="DrKxHcsU2RTHfQZ3V-Yh-3" edge="1">
          <mxGeometry width="50" height="50" relative="1" as="geometry">
            <mxPoint x="351" y="208" as="sourcePoint" />
            <mxPoint x="401" y="158" as="targetPoint" />
          </mxGeometry>
        </mxCell>
        <mxCell id="DrKxHcsU2RTHfQZ3V-Yh-16" value="プロキシサーバー1&lt;div style=&quot;font-size: 16px;&quot;&gt;&lt;br style=&quot;font-size: 16px;&quot;&gt;&lt;/div&gt;" style="text;strokeColor=none;align=center;fillColor=none;html=1;verticalAlign=middle;whiteSpace=wrap;rounded=0;fontSize=16;" parent="1" vertex="1">
          <mxGeometry x="276" y="-3.930000000000007" width="79.5" height="30" as="geometry" />
        </mxCell>
        <mxCell id="DrKxHcsU2RTHfQZ3V-Yh-19" style="edgeStyle=none;curved=1;rounded=0;orthogonalLoop=1;jettySize=auto;html=1;exitX=0.75;exitY=0;exitDx=0;exitDy=0;fontSize=12;startSize=8;endSize=8;" parent="1" edge="1">
          <mxGeometry relative="1" as="geometry">
            <mxPoint x="458.625" y="140" as="sourcePoint" />
            <mxPoint x="458.625" y="140" as="targetPoint" />
          </mxGeometry>
        </mxCell>
        <mxCell id="DrKxHcsU2RTHfQZ3V-Yh-20" value="外部DNSサーバ" style="text;strokeColor=none;align=center;fillColor=none;html=1;verticalAlign=middle;whiteSpace=wrap;rounded=0;fontSize=17;" parent="1" vertex="1">
          <mxGeometry x="498" y="-13" width="79.5" height="30" as="geometry" />
        </mxCell>
        <mxCell id="DrKxHcsU2RTHfQZ3V-Yh-22" value="外部メールサーバ" style="text;strokeColor=none;align=center;fillColor=none;html=1;verticalAlign=middle;whiteSpace=wrap;rounded=0;fontSize=17;" parent="1" vertex="1">
          <mxGeometry x="607" y="-3.9299999999999997" width="90" height="25" as="geometry" />
        </mxCell>
        <mxCell id="DrKxHcsU2RTHfQZ3V-Yh-27" value="" style="endArrow=none;html=1;rounded=0;fontSize=12;startSize=8;endSize=8;curved=1;exitX=0.227;exitY=0.422;exitDx=0;exitDy=0;exitPerimeter=0;" parent="1" edge="1">
          <mxGeometry width="50" height="50" relative="1" as="geometry">
            <mxPoint x="161.75800000000027" y="568.8469999999995" as="sourcePoint" />
            <mxPoint x="161.08989233230977" y="305" as="targetPoint" />
          </mxGeometry>
        </mxCell>
        <mxCell id="DrKxHcsU2RTHfQZ3V-Yh-29" value="DMZ" style="text;strokeColor=none;align=center;fillColor=none;html=1;verticalAlign=middle;whiteSpace=wrap;rounded=0;fontSize=17;" parent="1" vertex="1">
          <mxGeometry x="633" y="308" width="122" height="68" as="geometry" />
        </mxCell>
        <mxCell id="DrKxHcsU2RTHfQZ3V-Yh-31" value="" style="endArrow=none;html=1;rounded=0;fontSize=12;startSize=8;endSize=8;curved=1;exitX=0.593;exitY=0.152;exitDx=0;exitDy=0;exitPerimeter=0;" parent="1" source="DrKxHcsU2RTHfQZ3V-Yh-8" target="DrKxHcsU2RTHfQZ3V-Yh-5" edge="1">
          <mxGeometry width="50" height="50" relative="1" as="geometry">
            <mxPoint x="496.43200000000024" y="214.42399999999998" as="sourcePoint" />
            <mxPoint x="444.20245288123397" y="77" as="targetPoint" />
          </mxGeometry>
        </mxCell>
        <mxCell id="DrKxHcsU2RTHfQZ3V-Yh-8" value="" style="sketch=0;points=[[0.015,0.015,0],[0.985,0.015,0],[0.985,0.985,0],[0.015,0.985,0],[0.25,0,0],[0.5,0,0],[0.75,0,0],[1,0.25,0],[1,0.5,0],[1,0.75,0],[0.75,1,0],[0.5,1,0],[0.25,1,0],[0,0.75,0],[0,0.5,0],[0,0.25,0]];verticalLabelPosition=bottom;html=1;verticalAlign=top;aspect=fixed;align=center;pointerEvents=1;shape=mxgraph.cisco19.rect;prIcon=l2_switch;fillColor=#FAFAFA;strokeColor=#005073;" parent="1" vertex="1">
          <mxGeometry x="402" y="234" width="62" height="62" as="geometry" />
        </mxCell>
        <mxCell id="DrKxHcsU2RTHfQZ3V-Yh-32" value="プロキシサーバー2" style="text;strokeColor=none;align=center;fillColor=none;html=1;verticalAlign=middle;whiteSpace=wrap;rounded=0;fontSize=16;" parent="1" vertex="1">
          <mxGeometry x="382" y="-13" width="79.5" height="30" as="geometry" />
        </mxCell>
        <mxCell id="DrKxHcsU2RTHfQZ3V-Yh-53" style="edgeStyle=none;curved=1;rounded=0;orthogonalLoop=1;jettySize=auto;html=1;exitX=0;exitY=0;exitDx=0;exitDy=0;fontSize=12;startSize=8;endSize=8;" parent="1" source="DrKxHcsU2RTHfQZ3V-Yh-28" target="DrKxHcsU2RTHfQZ3V-Yh-28" edge="1">
          <mxGeometry relative="1" as="geometry" />
        </mxCell>
        <mxCell id="DrKxHcsU2RTHfQZ3V-Yh-54" value="" style="endArrow=none;html=1;rounded=0;fontSize=12;startSize=8;endSize=8;curved=1;" parent="1" source="ziOiXydjQFaTyok0d3w3-16" target="DrKxHcsU2RTHfQZ3V-Yh-2" edge="1">
          <mxGeometry width="50" height="50" relative="1" as="geometry">
            <mxPoint x="370" y="101" as="sourcePoint" />
            <mxPoint x="420" y="51" as="targetPoint" />
          </mxGeometry>
        </mxCell>
        <mxCell id="DrKxHcsU2RTHfQZ3V-Yh-56" value="" style="endArrow=none;html=1;rounded=0;fontSize=12;startSize=8;endSize=8;curved=1;entryX=0.5;entryY=1;entryDx=0;entryDy=0;" parent="1" source="DrKxHcsU2RTHfQZ3V-Yh-2" target="DrKxHcsU2RTHfQZ3V-Yh-1" edge="1">
          <mxGeometry width="50" height="50" relative="1" as="geometry">
            <mxPoint x="370" y="-41" as="sourcePoint" />
            <mxPoint x="150" y="-222" as="targetPoint" />
          </mxGeometry>
        </mxCell>
        <mxCell id="DrKxHcsU2RTHfQZ3V-Yh-57" style="edgeStyle=none;curved=1;rounded=0;orthogonalLoop=1;jettySize=auto;html=1;exitX=0.25;exitY=0;exitDx=0;exitDy=0;fontSize=12;startSize=8;endSize=8;" parent="1" source="DrKxHcsU2RTHfQZ3V-Yh-1" target="DrKxHcsU2RTHfQZ3V-Yh-1" edge="1">
          <mxGeometry relative="1" as="geometry" />
        </mxCell>
        <mxCell id="DrKxHcsU2RTHfQZ3V-Yh-65" style="edgeStyle=none;curved=1;rounded=0;orthogonalLoop=1;jettySize=auto;html=1;exitX=0.75;exitY=1;exitDx=0;exitDy=0;fontSize=12;startSize=8;endSize=8;" parent="1" source="DrKxHcsU2RTHfQZ3V-Yh-16" target="DrKxHcsU2RTHfQZ3V-Yh-16" edge="1">
          <mxGeometry relative="1" as="geometry" />
        </mxCell>
        <mxCell id="DrKxHcsU2RTHfQZ3V-Yh-67" style="edgeStyle=none;curved=1;rounded=0;orthogonalLoop=1;jettySize=auto;html=1;exitX=0;exitY=0;exitDx=0;exitDy=0;fontSize=12;startSize=8;endSize=8;" parent="1" source="DrKxHcsU2RTHfQZ3V-Yh-28" target="DrKxHcsU2RTHfQZ3V-Yh-28" edge="1">
          <mxGeometry relative="1" as="geometry" />
        </mxCell>
        <mxCell id="DrKxHcsU2RTHfQZ3V-Yh-69" value="" style="image;html=1;image=img/lib/clip_art/computers/Server_Rack_128x128.png" parent="1" vertex="1">
          <mxGeometry x="-479" y="61" width="80" height="80" as="geometry" />
        </mxCell>
        <mxCell id="DrKxHcsU2RTHfQZ3V-Yh-70" value="" style="image;html=1;image=img/lib/clip_art/computers/Server_Rack_128x128.png" parent="1" vertex="1">
          <mxGeometry x="-292" y="58.99999999999999" width="80" height="80" as="geometry" />
        </mxCell>
        <mxCell id="DrKxHcsU2RTHfQZ3V-Yh-71" value="" style="image;html=1;image=img/lib/clip_art/computers/Server_Rack_128x128.png" parent="1" vertex="1">
          <mxGeometry x="-105" y="61" width="80" height="80" as="geometry" />
        </mxCell>
        <mxCell id="DrKxHcsU2RTHfQZ3V-Yh-75" value="" style="endArrow=none;html=1;rounded=0;fontSize=12;startSize=8;endSize=8;curved=1;exitX=0.326;exitY=0.559;exitDx=0;exitDy=0;exitPerimeter=0;entryX=0.5;entryY=1;entryDx=0;entryDy=0;entryPerimeter=0;" parent="1" source="DrKxHcsU2RTHfQZ3V-Yh-73" target="DrKxHcsU2RTHfQZ3V-Yh-25" edge="1">
          <mxGeometry width="50" height="50" relative="1" as="geometry">
            <mxPoint x="86" y="328" as="sourcePoint" />
            <mxPoint x="136" y="278" as="targetPoint" />
          </mxGeometry>
        </mxCell>
        <mxCell id="DrKxHcsU2RTHfQZ3V-Yh-76" style="edgeStyle=none;curved=1;rounded=0;orthogonalLoop=1;jettySize=auto;html=1;exitX=0;exitY=0.5;exitDx=0;exitDy=0;exitPerimeter=0;fontSize=12;startSize=8;endSize=8;" parent="1" source="DrKxHcsU2RTHfQZ3V-Yh-73" target="DrKxHcsU2RTHfQZ3V-Yh-73" edge="1">
          <mxGeometry relative="1" as="geometry" />
        </mxCell>
        <mxCell id="DrKxHcsU2RTHfQZ3V-Yh-77" value="" style="endArrow=none;html=1;rounded=0;fontSize=12;startSize=8;endSize=8;curved=1;exitX=0.303;exitY=0.61;exitDx=0;exitDy=0;exitPerimeter=0;entryX=0.75;entryY=1;entryDx=0;entryDy=0;" parent="1" source="DrKxHcsU2RTHfQZ3V-Yh-73" target="DrKxHcsU2RTHfQZ3V-Yh-69" edge="1">
          <mxGeometry width="50" height="50" relative="1" as="geometry">
            <mxPoint x="75" y="397" as="sourcePoint" />
            <mxPoint x="125" y="347" as="targetPoint" />
          </mxGeometry>
        </mxCell>
        <mxCell id="DrKxHcsU2RTHfQZ3V-Yh-78" value="" style="endArrow=none;html=1;rounded=0;fontSize=12;startSize=8;endSize=8;curved=1;exitX=0.381;exitY=0.473;exitDx=0;exitDy=0;exitPerimeter=0;" parent="1" source="DrKxHcsU2RTHfQZ3V-Yh-73" target="DrKxHcsU2RTHfQZ3V-Yh-70" edge="1">
          <mxGeometry width="50" height="50" relative="1" as="geometry">
            <mxPoint x="75" y="397" as="sourcePoint" />
            <mxPoint x="125" y="347" as="targetPoint" />
          </mxGeometry>
        </mxCell>
        <mxCell id="DrKxHcsU2RTHfQZ3V-Yh-79" value="" style="endArrow=none;html=1;rounded=0;fontSize=12;startSize=8;endSize=8;curved=1;exitX=0.303;exitY=0.512;exitDx=0;exitDy=0;exitPerimeter=0;" parent="1" source="DrKxHcsU2RTHfQZ3V-Yh-73" target="DrKxHcsU2RTHfQZ3V-Yh-71" edge="1">
          <mxGeometry width="50" height="50" relative="1" as="geometry">
            <mxPoint x="75" y="397" as="sourcePoint" />
            <mxPoint x="125" y="347" as="targetPoint" />
          </mxGeometry>
        </mxCell>
        <mxCell id="DrKxHcsU2RTHfQZ3V-Yh-73" value="" style="sketch=0;points=[[0.015,0.015,0],[0.985,0.015,0],[0.985,0.985,0],[0.015,0.985,0],[0.25,0,0],[0.5,0,0],[0.75,0,0],[1,0.25,0],[1,0.5,0],[1,0.75,0],[0.75,1,0],[0.5,1,0],[0.25,1,0],[0,0.75,0],[0,0.5,0],[0,0.25,0]];verticalLabelPosition=bottom;html=1;verticalAlign=top;aspect=fixed;align=center;pointerEvents=1;shape=mxgraph.cisco19.rect;prIcon=l2_switch;fillColor=#FAFAFA;strokeColor=#005073;" parent="1" vertex="1">
          <mxGeometry x="-283" y="251" width="62" height="62" as="geometry" />
        </mxCell>
        <mxCell id="DrKxHcsU2RTHfQZ3V-Yh-80" value="内部メールサーバ" style="text;strokeColor=none;align=center;fillColor=none;html=1;verticalAlign=middle;whiteSpace=wrap;rounded=0;fontSize=17;" parent="1" vertex="1">
          <mxGeometry x="-485" y="-11" width="95.5" height="49" as="geometry" />
        </mxCell>
        <mxCell id="DrKxHcsU2RTHfQZ3V-Yh-81" style="edgeStyle=none;curved=1;rounded=0;orthogonalLoop=1;jettySize=auto;html=1;exitX=0.75;exitY=0;exitDx=0;exitDy=0;fontSize=12;startSize=8;endSize=8;" parent="1" source="DrKxHcsU2RTHfQZ3V-Yh-80" target="DrKxHcsU2RTHfQZ3V-Yh-80" edge="1">
          <mxGeometry relative="1" as="geometry" />
        </mxCell>
        <mxCell id="DrKxHcsU2RTHfQZ3V-Yh-86" value="内部DNS&lt;div style=&quot;font-size: 17px;&quot;&gt;サーバ&lt;/div&gt;" style="text;strokeColor=none;align=center;fillColor=none;html=1;verticalAlign=middle;whiteSpace=wrap;rounded=0;fontSize=17;" parent="1" vertex="1">
          <mxGeometry x="-299.75" y="-13" width="96.75" height="49" as="geometry" />
        </mxCell>
        <mxCell id="DrKxHcsU2RTHfQZ3V-Yh-87" value="&lt;div style=&quot;font-size: 17px;&quot;&gt;PC管理&lt;br style=&quot;font-size: 17px;&quot;&gt;サーバ&lt;/div&gt;" style="text;strokeColor=none;align=center;fillColor=none;html=1;verticalAlign=middle;whiteSpace=wrap;rounded=0;fontSize=17;" parent="1" vertex="1">
          <mxGeometry x="-120.5" y="-11" width="95.5" height="49" as="geometry" />
        </mxCell>
        <mxCell id="DrKxHcsU2RTHfQZ3V-Yh-90" style="edgeStyle=none;curved=1;rounded=0;orthogonalLoop=1;jettySize=auto;html=1;exitX=1;exitY=1;exitDx=0;exitDy=0;fontSize=12;startSize=8;endSize=8;" parent="1" source="DrKxHcsU2RTHfQZ3V-Yh-89" target="DrKxHcsU2RTHfQZ3V-Yh-89" edge="1">
          <mxGeometry relative="1" as="geometry" />
        </mxCell>
        <mxCell id="DrKxHcsU2RTHfQZ3V-Yh-91" value="サーバセグメント" style="text;strokeColor=none;align=center;fillColor=none;html=1;verticalAlign=middle;whiteSpace=wrap;rounded=0;fontSize=17;" parent="1" vertex="1">
          <mxGeometry x="-509" y="325.07" width="157" height="64" as="geometry" />
        </mxCell>
        <mxCell id="DrKxHcsU2RTHfQZ3V-Yh-92" value="" style="fontColor=#0066CC;verticalAlign=top;verticalLabelPosition=bottom;labelPosition=center;align=center;html=1;outlineConnect=0;fillColor=#CCCCCC;strokeColor=#6881B3;gradientColor=none;gradientDirection=north;strokeWidth=2;shape=mxgraph.networks.pc;" parent="1" vertex="1">
          <mxGeometry x="402" y="691" width="86.25" height="57" as="geometry" />
        </mxCell>
        <mxCell id="DrKxHcsU2RTHfQZ3V-Yh-93" value="管理PC" style="text;strokeColor=none;align=center;fillColor=none;html=1;verticalAlign=middle;whiteSpace=wrap;rounded=0;fontSize=17;" parent="1" vertex="1">
          <mxGeometry x="410.75" y="776" width="79.5" height="30" as="geometry" />
        </mxCell>
        <mxCell id="DrKxHcsU2RTHfQZ3V-Yh-94" value="" style="fontColor=#0066CC;verticalAlign=top;verticalLabelPosition=bottom;labelPosition=center;align=center;html=1;outlineConnect=0;fillColor=#CCCCCC;strokeColor=#6881B3;gradientColor=none;gradientDirection=north;strokeWidth=2;shape=mxgraph.networks.pc;" parent="1" vertex="1">
          <mxGeometry x="410.75" y="463" width="77.25" height="60" as="geometry" />
        </mxCell>
        <mxCell id="DrKxHcsU2RTHfQZ3V-Yh-95" value="社員PC" style="text;strokeColor=none;align=center;fillColor=none;html=1;verticalAlign=middle;whiteSpace=wrap;rounded=0;fontSize=17;" parent="1" vertex="1">
          <mxGeometry x="414.5" y="548" width="79.5" height="30" as="geometry" />
        </mxCell>
        <mxCell id="DrKxHcsU2RTHfQZ3V-Yh-96" value="" style="endArrow=none;html=1;rounded=0;fontSize=12;startSize=8;endSize=8;curved=1;entryX=0;entryY=0.5;entryDx=0;entryDy=0;entryPerimeter=0;" parent="1" source="DrKxHcsU2RTHfQZ3V-Yh-25" target="DrKxHcsU2RTHfQZ3V-Yh-94" edge="1">
          <mxGeometry width="50" height="50" relative="1" as="geometry">
            <mxPoint x="170" y="512" as="sourcePoint" />
            <mxPoint x="220" y="462" as="targetPoint" />
          </mxGeometry>
        </mxCell>
        <mxCell id="DrKxHcsU2RTHfQZ3V-Yh-97" style="edgeStyle=none;curved=1;rounded=0;orthogonalLoop=1;jettySize=auto;html=1;entryX=0.5;entryY=0;entryDx=0;entryDy=0;entryPerimeter=0;fontSize=12;startSize=8;endSize=8;" parent="1" source="DrKxHcsU2RTHfQZ3V-Yh-25" target="DrKxHcsU2RTHfQZ3V-Yh-25" edge="1">
          <mxGeometry relative="1" as="geometry" />
        </mxCell>
        <mxCell id="DrKxHcsU2RTHfQZ3V-Yh-98" value="" style="endArrow=none;html=1;rounded=0;fontSize=12;startSize=8;endSize=8;curved=1;exitX=0.328;exitY=0.568;exitDx=0;exitDy=0;exitPerimeter=0;" parent="1" source="DrKxHcsU2RTHfQZ3V-Yh-25" target="DrKxHcsU2RTHfQZ3V-Yh-92" edge="1">
          <mxGeometry width="50" height="50" relative="1" as="geometry">
            <mxPoint x="140" y="487" as="sourcePoint" />
            <mxPoint x="190" y="437" as="targetPoint" />
          </mxGeometry>
        </mxCell>
        <mxCell id="ziOiXydjQFaTyok0d3w3-12" value="利用者セグメント" style="text;strokeColor=none;align=center;fillColor=none;html=1;verticalAlign=middle;whiteSpace=wrap;rounded=0;fontSize=17;" vertex="1" parent="1">
          <mxGeometry x="571" y="863" width="177" height="68" as="geometry" />
        </mxCell>
        <mxCell id="ziOiXydjQFaTyok0d3w3-13" value="L3スイッチ" style="text;strokeColor=none;align=center;fillColor=none;html=1;verticalAlign=middle;whiteSpace=wrap;rounded=0;fontSize=17;" vertex="1" parent="1">
          <mxGeometry x="107.59" y="616" width="105" height="37" as="geometry" />
        </mxCell>
        <mxCell id="DrKxHcsU2RTHfQZ3V-Yh-25" value="" style="sketch=0;points=[[0.015,0.015,0],[0.985,0.015,0],[0.985,0.985,0],[0.015,0.985,0],[0.25,0,0],[0.5,0,0],[0.75,0,0],[1,0.25,0],[1,0.5,0],[1,0.75,0],[0.75,1,0],[0.5,1,0],[0.25,1,0],[0,0.75,0],[0,0.5,0],[0,0.25,0]];verticalLabelPosition=bottom;html=1;verticalAlign=top;aspect=fixed;align=center;pointerEvents=1;shape=mxgraph.cisco19.rect;prIcon=l3_switch;fillColor=#FAFAFA;strokeColor=#005073;direction=south;" parent="1" vertex="1">
          <mxGeometry x="129" y="548" width="61" height="61" as="geometry" />
        </mxCell>
        <mxCell id="ziOiXydjQFaTyok0d3w3-14" value="L2スイッチ" style="text;strokeColor=none;align=center;fillColor=none;html=1;verticalAlign=middle;whiteSpace=wrap;rounded=0;fontSize=17;" vertex="1" parent="1">
          <mxGeometry x="-303.87" y="325.07" width="105" height="37" as="geometry" />
        </mxCell>
        <mxCell id="ziOiXydjQFaTyok0d3w3-15" value="L2スイッチ" style="text;strokeColor=none;align=center;fillColor=none;html=1;verticalAlign=middle;whiteSpace=wrap;rounded=0;fontSize=17;" vertex="1" parent="1">
          <mxGeometry x="385.25" y="308" width="105" height="37" as="geometry" />
        </mxCell>
        <mxCell id="ziOiXydjQFaTyok0d3w3-18" value="" style="endArrow=none;html=1;rounded=0;fontSize=12;startSize=8;endSize=8;curved=1;" edge="1" parent="1" source="DrKxHcsU2RTHfQZ3V-Yh-3" target="ziOiXydjQFaTyok0d3w3-16">
          <mxGeometry width="50" height="50" relative="1" as="geometry">
            <mxPoint x="163" y="227" as="sourcePoint" />
            <mxPoint x="160" y="26" as="targetPoint" />
          </mxGeometry>
        </mxCell>
        <mxCell id="ziOiXydjQFaTyok0d3w3-16" value="&lt;div style=&quot;font-size: 17px;&quot;&gt;ルーター&lt;/div&gt;" style="text;strokeColor=none;align=center;fillColor=none;html=1;verticalAlign=middle;whiteSpace=wrap;rounded=0;fontSize=17;" vertex="1" parent="1">
          <mxGeometry x="109.03999999999999" y="36" width="95.5" height="49" as="geometry" />
        </mxCell>
        <mxCell id="ziOiXydjQFaTyok0d3w3-20" value="&lt;span style=&quot;font-size: 30px;&quot;&gt;Q社&lt;/span&gt;" style="text;strokeColor=none;align=center;fillColor=none;html=1;verticalAlign=middle;whiteSpace=wrap;rounded=0;fontSize=17;" vertex="1" parent="1">
          <mxGeometry x="-502" y="-252" width="191" height="99" as="geometry" />
        </mxCell>
        <mxCell id="ziOiXydjQFaTyok0d3w3-22" value="&lt;div style=&quot;font-size: 17px;&quot;&gt;ファイアフォール&lt;/div&gt;" style="text;strokeColor=none;align=center;fillColor=none;html=1;verticalAlign=middle;whiteSpace=wrap;rounded=0;fontSize=17;" vertex="1" parent="1">
          <mxGeometry x="113.91" y="333" width="85.75" height="108.93" as="geometry" />
        </mxCell>
      </root>
    </mxGraphModel>
  </diagram>
  <diagram name="ページ1のコピー" id="ktKkLM5TYFKdbGdzPwie">
    <mxGraphModel dx="2868" dy="1272" grid="0" gridSize="10" guides="1" tooltips="1" connect="1" arrows="1" fold="1" page="0" pageScale="1" pageWidth="827" pageHeight="1169" math="0" shadow="0">
      <root>
        <mxCell id="LeUiIcLvKOep62EWzqUP-0" />
        <mxCell id="LeUiIcLvKOep62EWzqUP-1" parent="LeUiIcLvKOep62EWzqUP-0" />
        <mxCell id="ee0duNsLG5vYrk6HXB1_-0" value="" style="whiteSpace=wrap;html=1;" vertex="1" parent="LeUiIcLvKOep62EWzqUP-1">
          <mxGeometry x="230" y="439" width="520" height="417" as="geometry" />
        </mxCell>
        <mxCell id="LeUiIcLvKOep62EWzqUP-2" value="" style="rounded=0;whiteSpace=wrap;html=1;" vertex="1" parent="LeUiIcLvKOep62EWzqUP-1">
          <mxGeometry x="-511" y="-39.93" width="555" height="429" as="geometry" />
        </mxCell>
        <mxCell id="LeUiIcLvKOep62EWzqUP-3" value="" style="whiteSpace=wrap;html=1;" vertex="1" parent="LeUiIcLvKOep62EWzqUP-1">
          <mxGeometry x="233" y="-41" width="520" height="417" as="geometry" />
        </mxCell>
        <mxCell id="LeUiIcLvKOep62EWzqUP-4" value="" style="image;aspect=fixed;perimeter=ellipsePerimeter;html=1;align=center;shadow=0;dashed=0;spacingTop=3;image=img/lib/active_directory/internet_cloud.svg;" vertex="1" parent="LeUiIcLvKOep62EWzqUP-1">
          <mxGeometry x="107.59" y="-195" width="98.41" height="62" as="geometry" />
        </mxCell>
        <mxCell id="LeUiIcLvKOep62EWzqUP-5" value="" style="sketch=0;outlineConnect=0;fontColor=#232F3E;gradientColor=none;fillColor=#8C4FFF;strokeColor=none;dashed=0;verticalLabelPosition=bottom;verticalAlign=top;align=center;html=1;fontSize=12;fontStyle=0;aspect=fixed;pointerEvents=1;shape=mxgraph.aws4.customer_gateway;" vertex="1" parent="LeUiIcLvKOep62EWzqUP-1">
          <mxGeometry x="126.5" y="-39.93" width="66" height="66" as="geometry" />
        </mxCell>
        <mxCell id="LeUiIcLvKOep62EWzqUP-6" value="" style="image;html=1;image=img/lib/clip_art/networking/Firewall-page1_128x128.png" vertex="1" parent="LeUiIcLvKOep62EWzqUP-1">
          <mxGeometry x="121" y="227" width="85" height="71" as="geometry" />
        </mxCell>
        <mxCell id="LeUiIcLvKOep62EWzqUP-7" value="" style="image;html=1;image=img/lib/clip_art/computers/Server_Rack_128x128.png" vertex="1" parent="LeUiIcLvKOep62EWzqUP-1">
          <mxGeometry x="276" y="41" width="80" height="80" as="geometry" />
        </mxCell>
        <mxCell id="LeUiIcLvKOep62EWzqUP-8" value="" style="image;html=1;image=img/lib/clip_art/computers/Server_Rack_128x128.png" vertex="1" parent="LeUiIcLvKOep62EWzqUP-1">
          <mxGeometry x="390" y="41" width="80" height="80" as="geometry" />
        </mxCell>
        <mxCell id="LeUiIcLvKOep62EWzqUP-9" value="" style="image;html=1;image=img/lib/clip_art/computers/Server_Rack_128x128.png" vertex="1" parent="LeUiIcLvKOep62EWzqUP-1">
          <mxGeometry x="494" y="38" width="80" height="80" as="geometry" />
        </mxCell>
        <mxCell id="LeUiIcLvKOep62EWzqUP-10" value="" style="image;html=1;image=img/lib/clip_art/computers/Server_Rack_128x128.png" vertex="1" parent="LeUiIcLvKOep62EWzqUP-1">
          <mxGeometry x="612" y="45" width="80" height="80" as="geometry" />
        </mxCell>
        <mxCell id="LeUiIcLvKOep62EWzqUP-11" value="" style="endArrow=none;html=1;rounded=0;fontSize=12;startSize=8;endSize=8;curved=1;exitX=0.325;exitY=0.415;exitDx=0;exitDy=0;exitPerimeter=0;" edge="1" parent="LeUiIcLvKOep62EWzqUP-1" source="LeUiIcLvKOep62EWzqUP-23" target="LeUiIcLvKOep62EWzqUP-7">
          <mxGeometry width="50" height="50" relative="1" as="geometry">
            <mxPoint x="351" y="154" as="sourcePoint" />
            <mxPoint x="401" y="104" as="targetPoint" />
          </mxGeometry>
        </mxCell>
        <mxCell id="LeUiIcLvKOep62EWzqUP-12" value="" style="endArrow=none;html=1;rounded=0;fontSize=12;startSize=8;endSize=8;curved=1;exitX=0.544;exitY=0.305;exitDx=0;exitDy=0;exitPerimeter=0;" edge="1" parent="LeUiIcLvKOep62EWzqUP-1" source="LeUiIcLvKOep62EWzqUP-23" target="LeUiIcLvKOep62EWzqUP-9">
          <mxGeometry width="50" height="50" relative="1" as="geometry">
            <mxPoint x="351" y="154" as="sourcePoint" />
            <mxPoint x="401" y="104" as="targetPoint" />
          </mxGeometry>
        </mxCell>
        <mxCell id="LeUiIcLvKOep62EWzqUP-13" value="" style="endArrow=none;html=1;rounded=0;fontSize=12;startSize=8;endSize=8;curved=1;exitX=0.717;exitY=0.462;exitDx=0;exitDy=0;exitPerimeter=0;" edge="1" parent="LeUiIcLvKOep62EWzqUP-1" source="LeUiIcLvKOep62EWzqUP-23" target="LeUiIcLvKOep62EWzqUP-10">
          <mxGeometry width="50" height="50" relative="1" as="geometry">
            <mxPoint x="351" y="154" as="sourcePoint" />
            <mxPoint x="401" y="104" as="targetPoint" />
          </mxGeometry>
        </mxCell>
        <mxCell id="LeUiIcLvKOep62EWzqUP-14" value="" style="endArrow=none;html=1;rounded=0;fontSize=12;startSize=8;endSize=8;curved=1;" edge="1" parent="LeUiIcLvKOep62EWzqUP-1" source="LeUiIcLvKOep62EWzqUP-23" target="LeUiIcLvKOep62EWzqUP-6">
          <mxGeometry width="50" height="50" relative="1" as="geometry">
            <mxPoint x="351" y="208" as="sourcePoint" />
            <mxPoint x="401" y="158" as="targetPoint" />
          </mxGeometry>
        </mxCell>
        <mxCell id="LeUiIcLvKOep62EWzqUP-15" value="プロキシサーバー1&lt;div&gt;&lt;br&gt;&lt;/div&gt;" style="text;strokeColor=none;align=center;fillColor=none;html=1;verticalAlign=middle;whiteSpace=wrap;rounded=0;fontSize=16;" vertex="1" parent="LeUiIcLvKOep62EWzqUP-1">
          <mxGeometry x="276" y="-3.930000000000007" width="79.5" height="30" as="geometry" />
        </mxCell>
        <mxCell id="LeUiIcLvKOep62EWzqUP-16" style="edgeStyle=none;curved=1;rounded=0;orthogonalLoop=1;jettySize=auto;html=1;exitX=0.75;exitY=0;exitDx=0;exitDy=0;fontSize=12;startSize=8;endSize=8;" edge="1" parent="LeUiIcLvKOep62EWzqUP-1">
          <mxGeometry relative="1" as="geometry">
            <mxPoint x="458.625" y="140" as="sourcePoint" />
            <mxPoint x="458.625" y="140" as="targetPoint" />
          </mxGeometry>
        </mxCell>
        <mxCell id="LeUiIcLvKOep62EWzqUP-17" value="外部DNSサーバ" style="text;strokeColor=none;align=center;fillColor=none;html=1;verticalAlign=middle;whiteSpace=wrap;rounded=0;fontSize=16;" vertex="1" parent="LeUiIcLvKOep62EWzqUP-1">
          <mxGeometry x="498" y="-13" width="79.5" height="30" as="geometry" />
        </mxCell>
        <mxCell id="LeUiIcLvKOep62EWzqUP-18" value="外部メールサーバ" style="text;strokeColor=none;align=center;fillColor=none;html=1;verticalAlign=middle;whiteSpace=wrap;rounded=0;fontSize=16;" vertex="1" parent="LeUiIcLvKOep62EWzqUP-1">
          <mxGeometry x="607" y="-3.9299999999999997" width="90" height="25" as="geometry" />
        </mxCell>
        <mxCell id="LeUiIcLvKOep62EWzqUP-19" value="" style="endArrow=none;html=1;rounded=0;fontSize=12;startSize=8;endSize=8;curved=1;exitX=0.227;exitY=0.422;exitDx=0;exitDy=0;exitPerimeter=0;" edge="1" parent="LeUiIcLvKOep62EWzqUP-1" source="LeUiIcLvKOep62EWzqUP-20" target="LeUiIcLvKOep62EWzqUP-6">
          <mxGeometry width="50" height="50" relative="1" as="geometry">
            <mxPoint x="351" y="383" as="sourcePoint" />
            <mxPoint x="401" y="333" as="targetPoint" />
          </mxGeometry>
        </mxCell>
        <mxCell id="LeUiIcLvKOep62EWzqUP-20" value="" style="sketch=0;points=[[0.015,0.015,0],[0.985,0.015,0],[0.985,0.985,0],[0.015,0.985,0],[0.25,0,0],[0.5,0,0],[0.75,0,0],[1,0.25,0],[1,0.5,0],[1,0.75,0],[0.75,1,0],[0.5,1,0],[0.25,1,0],[0,0.75,0],[0,0.5,0],[0,0.25,0]];verticalLabelPosition=bottom;html=1;verticalAlign=top;aspect=fixed;align=center;pointerEvents=1;shape=mxgraph.cisco19.rect;prIcon=l3_switch;fillColor=#FAFAFA;strokeColor=#005073;direction=south;" vertex="1" parent="LeUiIcLvKOep62EWzqUP-1">
          <mxGeometry x="129" y="548" width="61" height="61" as="geometry" />
        </mxCell>
        <mxCell id="LeUiIcLvKOep62EWzqUP-21" value="DMZ" style="text;strokeColor=none;align=center;fillColor=none;html=1;verticalAlign=middle;whiteSpace=wrap;rounded=0;fontSize=16;" vertex="1" parent="LeUiIcLvKOep62EWzqUP-1">
          <mxGeometry x="633" y="308" width="122" height="68" as="geometry" />
        </mxCell>
        <mxCell id="LeUiIcLvKOep62EWzqUP-22" value="" style="endArrow=none;html=1;rounded=0;fontSize=12;startSize=8;endSize=8;curved=1;exitX=0.593;exitY=0.152;exitDx=0;exitDy=0;exitPerimeter=0;" edge="1" parent="LeUiIcLvKOep62EWzqUP-1" source="LeUiIcLvKOep62EWzqUP-23" target="LeUiIcLvKOep62EWzqUP-8">
          <mxGeometry width="50" height="50" relative="1" as="geometry">
            <mxPoint x="496.43200000000024" y="214.42399999999998" as="sourcePoint" />
            <mxPoint x="444.20245288123397" y="77" as="targetPoint" />
          </mxGeometry>
        </mxCell>
        <mxCell id="LeUiIcLvKOep62EWzqUP-23" value="" style="sketch=0;points=[[0.015,0.015,0],[0.985,0.015,0],[0.985,0.985,0],[0.015,0.985,0],[0.25,0,0],[0.5,0,0],[0.75,0,0],[1,0.25,0],[1,0.5,0],[1,0.75,0],[0.75,1,0],[0.5,1,0],[0.25,1,0],[0,0.75,0],[0,0.5,0],[0,0.25,0]];verticalLabelPosition=bottom;html=1;verticalAlign=top;aspect=fixed;align=center;pointerEvents=1;shape=mxgraph.cisco19.rect;prIcon=l2_switch;fillColor=#FAFAFA;strokeColor=#005073;" vertex="1" parent="LeUiIcLvKOep62EWzqUP-1">
          <mxGeometry x="402" y="234" width="62" height="62" as="geometry" />
        </mxCell>
        <mxCell id="LeUiIcLvKOep62EWzqUP-24" value="プロキシサーバー2" style="text;strokeColor=none;align=center;fillColor=none;html=1;verticalAlign=middle;whiteSpace=wrap;rounded=0;fontSize=16;" vertex="1" parent="LeUiIcLvKOep62EWzqUP-1">
          <mxGeometry x="382" y="-13" width="79.5" height="30" as="geometry" />
        </mxCell>
        <mxCell id="LeUiIcLvKOep62EWzqUP-25" style="edgeStyle=none;curved=1;rounded=0;orthogonalLoop=1;jettySize=auto;html=1;exitX=0;exitY=0;exitDx=0;exitDy=0;fontSize=12;startSize=8;endSize=8;" edge="1" parent="LeUiIcLvKOep62EWzqUP-1" source="LeUiIcLvKOep62EWzqUP-3" target="LeUiIcLvKOep62EWzqUP-3">
          <mxGeometry relative="1" as="geometry" />
        </mxCell>
        <mxCell id="LeUiIcLvKOep62EWzqUP-26" value="" style="endArrow=none;html=1;rounded=0;fontSize=12;startSize=8;endSize=8;curved=1;" edge="1" parent="LeUiIcLvKOep62EWzqUP-1" source="LeUiIcLvKOep62EWzqUP-6" target="LeUiIcLvKOep62EWzqUP-5">
          <mxGeometry width="50" height="50" relative="1" as="geometry">
            <mxPoint x="370" y="101" as="sourcePoint" />
            <mxPoint x="420" y="51" as="targetPoint" />
          </mxGeometry>
        </mxCell>
        <mxCell id="LeUiIcLvKOep62EWzqUP-27" value="" style="endArrow=none;html=1;rounded=0;fontSize=12;startSize=8;endSize=8;curved=1;entryX=0.5;entryY=1;entryDx=0;entryDy=0;" edge="1" parent="LeUiIcLvKOep62EWzqUP-1" source="LeUiIcLvKOep62EWzqUP-5" target="LeUiIcLvKOep62EWzqUP-4">
          <mxGeometry width="50" height="50" relative="1" as="geometry">
            <mxPoint x="370" y="-41" as="sourcePoint" />
            <mxPoint x="150" y="-222" as="targetPoint" />
          </mxGeometry>
        </mxCell>
        <mxCell id="LeUiIcLvKOep62EWzqUP-28" style="edgeStyle=none;curved=1;rounded=0;orthogonalLoop=1;jettySize=auto;html=1;exitX=0.25;exitY=0;exitDx=0;exitDy=0;fontSize=12;startSize=8;endSize=8;" edge="1" parent="LeUiIcLvKOep62EWzqUP-1" source="LeUiIcLvKOep62EWzqUP-4" target="LeUiIcLvKOep62EWzqUP-4">
          <mxGeometry relative="1" as="geometry" />
        </mxCell>
        <mxCell id="LeUiIcLvKOep62EWzqUP-29" style="edgeStyle=none;curved=1;rounded=0;orthogonalLoop=1;jettySize=auto;html=1;exitX=0.75;exitY=1;exitDx=0;exitDy=0;fontSize=12;startSize=8;endSize=8;" edge="1" parent="LeUiIcLvKOep62EWzqUP-1" source="LeUiIcLvKOep62EWzqUP-15" target="LeUiIcLvKOep62EWzqUP-15">
          <mxGeometry relative="1" as="geometry" />
        </mxCell>
        <mxCell id="LeUiIcLvKOep62EWzqUP-30" style="edgeStyle=none;curved=1;rounded=0;orthogonalLoop=1;jettySize=auto;html=1;exitX=0;exitY=0;exitDx=0;exitDy=0;fontSize=12;startSize=8;endSize=8;" edge="1" parent="LeUiIcLvKOep62EWzqUP-1" source="LeUiIcLvKOep62EWzqUP-3" target="LeUiIcLvKOep62EWzqUP-3">
          <mxGeometry relative="1" as="geometry" />
        </mxCell>
        <mxCell id="LeUiIcLvKOep62EWzqUP-31" value="" style="image;html=1;image=img/lib/clip_art/computers/Server_Rack_128x128.png" vertex="1" parent="LeUiIcLvKOep62EWzqUP-1">
          <mxGeometry x="-479" y="61" width="80" height="80" as="geometry" />
        </mxCell>
        <mxCell id="LeUiIcLvKOep62EWzqUP-32" value="" style="image;html=1;image=img/lib/clip_art/computers/Server_Rack_128x128.png" vertex="1" parent="LeUiIcLvKOep62EWzqUP-1">
          <mxGeometry x="-292" y="58.99999999999999" width="80" height="80" as="geometry" />
        </mxCell>
        <mxCell id="LeUiIcLvKOep62EWzqUP-33" value="" style="image;html=1;image=img/lib/clip_art/computers/Server_Rack_128x128.png" vertex="1" parent="LeUiIcLvKOep62EWzqUP-1">
          <mxGeometry x="-105" y="61" width="80" height="80" as="geometry" />
        </mxCell>
        <mxCell id="LeUiIcLvKOep62EWzqUP-34" value="" style="endArrow=none;html=1;rounded=0;fontSize=12;startSize=8;endSize=8;curved=1;exitX=0.326;exitY=0.559;exitDx=0;exitDy=0;exitPerimeter=0;entryX=0.5;entryY=1;entryDx=0;entryDy=0;entryPerimeter=0;" edge="1" parent="LeUiIcLvKOep62EWzqUP-1" source="LeUiIcLvKOep62EWzqUP-39" target="LeUiIcLvKOep62EWzqUP-20">
          <mxGeometry width="50" height="50" relative="1" as="geometry">
            <mxPoint x="86" y="328" as="sourcePoint" />
            <mxPoint x="136" y="278" as="targetPoint" />
          </mxGeometry>
        </mxCell>
        <mxCell id="LeUiIcLvKOep62EWzqUP-35" style="edgeStyle=none;curved=1;rounded=0;orthogonalLoop=1;jettySize=auto;html=1;exitX=0;exitY=0.5;exitDx=0;exitDy=0;exitPerimeter=0;fontSize=12;startSize=8;endSize=8;" edge="1" parent="LeUiIcLvKOep62EWzqUP-1" source="LeUiIcLvKOep62EWzqUP-39" target="LeUiIcLvKOep62EWzqUP-39">
          <mxGeometry relative="1" as="geometry" />
        </mxCell>
        <mxCell id="LeUiIcLvKOep62EWzqUP-36" value="" style="endArrow=none;html=1;rounded=0;fontSize=12;startSize=8;endSize=8;curved=1;exitX=0.303;exitY=0.61;exitDx=0;exitDy=0;exitPerimeter=0;entryX=0.75;entryY=1;entryDx=0;entryDy=0;" edge="1" parent="LeUiIcLvKOep62EWzqUP-1" source="LeUiIcLvKOep62EWzqUP-39" target="LeUiIcLvKOep62EWzqUP-31">
          <mxGeometry width="50" height="50" relative="1" as="geometry">
            <mxPoint x="75" y="397" as="sourcePoint" />
            <mxPoint x="125" y="347" as="targetPoint" />
          </mxGeometry>
        </mxCell>
        <mxCell id="LeUiIcLvKOep62EWzqUP-37" value="" style="endArrow=none;html=1;rounded=0;fontSize=12;startSize=8;endSize=8;curved=1;exitX=0.381;exitY=0.473;exitDx=0;exitDy=0;exitPerimeter=0;" edge="1" parent="LeUiIcLvKOep62EWzqUP-1" source="LeUiIcLvKOep62EWzqUP-39" target="LeUiIcLvKOep62EWzqUP-32">
          <mxGeometry width="50" height="50" relative="1" as="geometry">
            <mxPoint x="75" y="397" as="sourcePoint" />
            <mxPoint x="125" y="347" as="targetPoint" />
          </mxGeometry>
        </mxCell>
        <mxCell id="LeUiIcLvKOep62EWzqUP-38" value="" style="endArrow=none;html=1;rounded=0;fontSize=12;startSize=8;endSize=8;curved=1;exitX=0.303;exitY=0.512;exitDx=0;exitDy=0;exitPerimeter=0;" edge="1" parent="LeUiIcLvKOep62EWzqUP-1" source="LeUiIcLvKOep62EWzqUP-39" target="LeUiIcLvKOep62EWzqUP-33">
          <mxGeometry width="50" height="50" relative="1" as="geometry">
            <mxPoint x="75" y="397" as="sourcePoint" />
            <mxPoint x="125" y="347" as="targetPoint" />
          </mxGeometry>
        </mxCell>
        <mxCell id="LeUiIcLvKOep62EWzqUP-39" value="" style="sketch=0;points=[[0.015,0.015,0],[0.985,0.015,0],[0.985,0.985,0],[0.015,0.985,0],[0.25,0,0],[0.5,0,0],[0.75,0,0],[1,0.25,0],[1,0.5,0],[1,0.75,0],[0.75,1,0],[0.5,1,0],[0.25,1,0],[0,0.75,0],[0,0.5,0],[0,0.25,0]];verticalLabelPosition=bottom;html=1;verticalAlign=top;aspect=fixed;align=center;pointerEvents=1;shape=mxgraph.cisco19.rect;prIcon=l2_switch;fillColor=#FAFAFA;strokeColor=#005073;" vertex="1" parent="LeUiIcLvKOep62EWzqUP-1">
          <mxGeometry x="-283" y="251" width="62" height="62" as="geometry" />
        </mxCell>
        <mxCell id="LeUiIcLvKOep62EWzqUP-40" value="内部メールサーバ" style="text;strokeColor=none;align=center;fillColor=none;html=1;verticalAlign=middle;whiteSpace=wrap;rounded=0;fontSize=16;" vertex="1" parent="LeUiIcLvKOep62EWzqUP-1">
          <mxGeometry x="-485" y="-11" width="95.5" height="49" as="geometry" />
        </mxCell>
        <mxCell id="LeUiIcLvKOep62EWzqUP-41" style="edgeStyle=none;curved=1;rounded=0;orthogonalLoop=1;jettySize=auto;html=1;exitX=0.75;exitY=0;exitDx=0;exitDy=0;fontSize=12;startSize=8;endSize=8;" edge="1" parent="LeUiIcLvKOep62EWzqUP-1" source="LeUiIcLvKOep62EWzqUP-40" target="LeUiIcLvKOep62EWzqUP-40">
          <mxGeometry relative="1" as="geometry" />
        </mxCell>
        <mxCell id="LeUiIcLvKOep62EWzqUP-42" value="内部DNS&lt;div&gt;サーバ&lt;/div&gt;" style="text;strokeColor=none;align=center;fillColor=none;html=1;verticalAlign=middle;whiteSpace=wrap;rounded=0;fontSize=16;" vertex="1" parent="LeUiIcLvKOep62EWzqUP-1">
          <mxGeometry x="-299.75" y="-13" width="95.5" height="49" as="geometry" />
        </mxCell>
        <mxCell id="LeUiIcLvKOep62EWzqUP-43" value="&lt;div&gt;PC管理&lt;br&gt;サーバ&lt;/div&gt;" style="text;strokeColor=none;align=center;fillColor=none;html=1;verticalAlign=middle;whiteSpace=wrap;rounded=0;fontSize=16;" vertex="1" parent="LeUiIcLvKOep62EWzqUP-1">
          <mxGeometry x="-120.5" y="-11" width="95.5" height="49" as="geometry" />
        </mxCell>
        <mxCell id="LeUiIcLvKOep62EWzqUP-44" style="edgeStyle=none;curved=1;rounded=0;orthogonalLoop=1;jettySize=auto;html=1;exitX=1;exitY=1;exitDx=0;exitDy=0;fontSize=12;startSize=8;endSize=8;" edge="1" parent="LeUiIcLvKOep62EWzqUP-1" source="LeUiIcLvKOep62EWzqUP-2" target="LeUiIcLvKOep62EWzqUP-2">
          <mxGeometry relative="1" as="geometry" />
        </mxCell>
        <mxCell id="LeUiIcLvKOep62EWzqUP-45" value="サーバセグメント" style="text;strokeColor=none;align=center;fillColor=none;html=1;verticalAlign=middle;whiteSpace=wrap;rounded=0;fontSize=16;" vertex="1" parent="LeUiIcLvKOep62EWzqUP-1">
          <mxGeometry x="-489" y="308" width="157" height="64" as="geometry" />
        </mxCell>
        <mxCell id="LeUiIcLvKOep62EWzqUP-46" value="" style="fontColor=#0066CC;verticalAlign=top;verticalLabelPosition=bottom;labelPosition=center;align=center;html=1;outlineConnect=0;fillColor=#CCCCCC;strokeColor=#6881B3;gradientColor=none;gradientDirection=north;strokeWidth=2;shape=mxgraph.networks.pc;" vertex="1" parent="LeUiIcLvKOep62EWzqUP-1">
          <mxGeometry x="402" y="691" width="86.25" height="57" as="geometry" />
        </mxCell>
        <mxCell id="LeUiIcLvKOep62EWzqUP-47" value="管理PC" style="text;strokeColor=none;align=center;fillColor=none;html=1;verticalAlign=middle;whiteSpace=wrap;rounded=0;fontSize=16;" vertex="1" parent="LeUiIcLvKOep62EWzqUP-1">
          <mxGeometry x="410.75" y="776" width="79.5" height="30" as="geometry" />
        </mxCell>
        <mxCell id="LeUiIcLvKOep62EWzqUP-48" value="" style="fontColor=#0066CC;verticalAlign=top;verticalLabelPosition=bottom;labelPosition=center;align=center;html=1;outlineConnect=0;fillColor=#CCCCCC;strokeColor=#6881B3;gradientColor=none;gradientDirection=north;strokeWidth=2;shape=mxgraph.networks.pc;" vertex="1" parent="LeUiIcLvKOep62EWzqUP-1">
          <mxGeometry x="410.75" y="463" width="77.25" height="60" as="geometry" />
        </mxCell>
        <mxCell id="LeUiIcLvKOep62EWzqUP-49" value="社員PC" style="text;strokeColor=none;align=center;fillColor=none;html=1;verticalAlign=middle;whiteSpace=wrap;rounded=0;fontSize=16;" vertex="1" parent="LeUiIcLvKOep62EWzqUP-1">
          <mxGeometry x="414.5" y="548" width="79.5" height="30" as="geometry" />
        </mxCell>
        <mxCell id="LeUiIcLvKOep62EWzqUP-50" value="" style="endArrow=none;html=1;rounded=0;fontSize=12;startSize=8;endSize=8;curved=1;entryX=0;entryY=0.5;entryDx=0;entryDy=0;entryPerimeter=0;" edge="1" parent="LeUiIcLvKOep62EWzqUP-1" source="LeUiIcLvKOep62EWzqUP-20" target="LeUiIcLvKOep62EWzqUP-48">
          <mxGeometry width="50" height="50" relative="1" as="geometry">
            <mxPoint x="170" y="512" as="sourcePoint" />
            <mxPoint x="220" y="462" as="targetPoint" />
          </mxGeometry>
        </mxCell>
        <mxCell id="LeUiIcLvKOep62EWzqUP-51" style="edgeStyle=none;curved=1;rounded=0;orthogonalLoop=1;jettySize=auto;html=1;entryX=0.5;entryY=0;entryDx=0;entryDy=0;entryPerimeter=0;fontSize=12;startSize=8;endSize=8;" edge="1" parent="LeUiIcLvKOep62EWzqUP-1" source="LeUiIcLvKOep62EWzqUP-20" target="LeUiIcLvKOep62EWzqUP-20">
          <mxGeometry relative="1" as="geometry" />
        </mxCell>
        <mxCell id="LeUiIcLvKOep62EWzqUP-52" value="" style="endArrow=none;html=1;rounded=0;fontSize=12;startSize=8;endSize=8;curved=1;exitX=0.328;exitY=0.568;exitDx=0;exitDy=0;exitPerimeter=0;" edge="1" parent="LeUiIcLvKOep62EWzqUP-1" source="LeUiIcLvKOep62EWzqUP-20" target="LeUiIcLvKOep62EWzqUP-46">
          <mxGeometry width="50" height="50" relative="1" as="geometry">
            <mxPoint x="140" y="487" as="sourcePoint" />
            <mxPoint x="190" y="437" as="targetPoint" />
          </mxGeometry>
        </mxCell>
        <mxCell id="ee0duNsLG5vYrk6HXB1_-1" value="利用者セグメント" style="text;strokeColor=none;align=center;fillColor=none;html=1;verticalAlign=middle;whiteSpace=wrap;rounded=0;fontSize=16;" vertex="1" parent="LeUiIcLvKOep62EWzqUP-1">
          <mxGeometry x="591" y="776" width="150" height="68" as="geometry" />
        </mxCell>
      </root>
    </mxGraphModel>
  </diagram>
</mxfile>
